<svg xmlns="http://www.w3.org/2000/svg" viewBox="0 0 1149.81 568.32"><defs><style>.cls-1{fill:#40a147;}.cls-2{fill:#19164f;}.cls-3{fill:#68b3db;}.cls-4{fill:#2788b8;}.cls-5{fill:#0d753b;}.cls-6{fill:#1f441f;}.cls-7{fill:#1a8d44;}.cls-8{fill:#1da64a;}.cls-9{fill:#015c8e;}.cls-10{fill:#1b3c1c;}.cls-11{fill:#1c5f30;}.cls-12{fill:#337d3d;}.cls-13{fill:#296331;}.cls-14{fill:none;stroke:#68b3db;stroke-miterlimit:10;stroke-width:12px;}</style></defs><g id="Layer_2" data-name="Layer 2"><g id="Secciones"><g id="hoja_2" data-name="hoja 2"><path class="cls-1" d="M98.29,75.5l61.89-.06s.2-14.2-2.71-25.21c-2-7.59-8.54-20.71-13.43-25.73A72.78,72.78,0,0,0,111.42,4.77C102,2,95.4.6,81.56.24,64.24-.23,46.13,6.86,38.75,11.37c-6.08,3.71-15,9.79-22.08,18.37C12,35.39,5.44,48.58,4.89,53.29,4.09,60.12,3.19,66,3.3,71.2a59.35,59.35,0,0,0,8.24,28.15c7.29,12,18,20.49,31.63,28s49.7,20.14,53.29,26c5.49,8.9,4.93,27.72-12.6,29.56C64.24,185,62.58,164.12,61.64,152.82H0s.31,9.41.31,19c0,5.89,3.63,19.27,7,25.54a71.7,71.7,0,0,0,13.8,18.27c7.8,7.2,19.39,13.29,25.91,15.16,5.39,1.54,14.16,4.1,23.17,4.94a149.12,149.12,0,0,0,31.48-.94c5.58-.95,15.91-3.24,23.87-7.14a63.53,63.53,0,0,0,20.73-16.1,73.28,73.28,0,0,0,10.92-18.29,70.08,70.08,0,0,0,4.47-23.8c-.12-6.29,0-13.57-1.73-21A47.26,47.26,0,0,0,151,129.58a90.76,90.76,0,0,0-32.19-25.37l-39.53-19S68,78.62,66.11,75.12c-1.47-2.66-1.26-7.38-1.17-9.22.29-6.44,8.57-11.43,11.85-11.78,7.13-.77,13.12.2,15.55,2.71C95.94,60.54,97.58,66.43,98.29,75.5Z"/><path class="cls-1" d="M217.36,58.3l.22,120.27L187,178.34l.48,57.71s124.46.38,124.84,0,0-57.71,0-57.71l-30.84-.42V58l30.51-.24L311.82.24,187.33.67l-.63,57.79Z"/><path class="cls-1" d="M442.32,99.48l137.56.24-80,129.56s-22.61,7.69-40.51,7.22a147.84,147.84,0,0,1-46.64-8.95c-14-5-31.49-18.77-42.56-30.31-5.79-6-16-20.39-21.83-34.23-3.61-8.64-8.32-28.11-8.79-35.49a150.07,150.07,0,0,1,2.19-35A125.63,125.63,0,0,1,352.1,62.74,106.29,106.29,0,0,1,385.63,24c13.9-9.9,39.57-21.12,55.59-22.54C448.87.74,461.07,0,470.35.63c10.14.68,17.35,2.84,24.89,5.18A136.56,136.56,0,0,1,522,17.43c14.36,8.37,30.56,23,37.69,35.49,12,21,13.35,31.41,13.35,31.41l-68.54.24s-9.82-18.85-23.95-24-31.1-6.75-45,.08S403,84.57,401.8,109.77c-1.14,24.47,2.4,30.56,7.93,41.61,5.26,10.53,17.34,21.43,27.33,25.29,10.36,4,26.22,3.69,26.22,3.69L482.83,151l-40.59.16Z"/><path class="cls-2" d="M584.08,58.38l-.15-57.2H663.7a257.72,257.72,0,0,1,28.23,1.25,93,93,0,0,1,19.71,4.4c13.7,5.27,25.6,13.19,33.6,25.6,5.38,8.33,13.9,25.45,14.45,37.37.32,6.83,1,13.55.63,21.13a60.14,60.14,0,0,1-3.61,18.29c-4.4,11-17.28,31.41-26.07,37.06s-11.39,8-24.11,10.84c-.15.31,62.58,79.62,62.58,79.62l-74.59.07L609.17,116.13l55.12.16s20.57-.32,27.64-9.27,7.09-15.2,6.75-24.5a23.25,23.25,0,0,0-4.79-13.27,28.93,28.93,0,0,0-9.81-7.3,33.85,33.85,0,0,0-11.54-3.22c-4.51-.49-10.56-.42-16.1-.47-11.07-.1-72.36.12-72.36.12"/><polygon class="cls-2" points="952.65 236.26 1016.96 236.15 1016.53 144.47 1085.63 144.47 1085.74 236.26 1149.82 236.15 1149.7 0.35 1054.88 0 1055 57.95 1085.39 57.83 1085.63 87.04 1016.96 86.8 1016.73 0.35 952.77 0.12 952.65 236.26"/><polygon class="cls-2" points="795.34 236.26 927.49 236.42 927.64 178.63 857.13 178.87 856.98 145.65 894.43 145.65 894.35 87.63 857.21 87.71 857.06 58.1 927.49 57.95 927.49 0.31 795.26 0.31 795.34 236.26"/></g><polygon class="cls-3" points="592.3 118.13 723.35 345.11 461.26 345.11 592.3 118.13"/></g><g id="Planeta"><circle class="cls-3" cx="592.3" cy="418.35" r="149.6"/><path class="cls-4" d="M741.9,417.69l-1.32-2.3v2.78l-3.57.1-1.42,1-1.37-.54.83-10.62L686.69,413,674.5,430.12l-11.78,2.39-52.65,18.15-1.59,13.91-53.55,9.6s-.56-5.56-.46-6l-90.74,6.19,5.16,9.63h-4.31l-.69,1.07L462.82,484l-1.75,4.8a148.88,148.88,0,0,0,280.64-69.29"/><path class="cls-5" d="M678.27,446.07l6.66,6.07L692,439.61l19.58.79,18.59-11,4.9-21.34-31.13,2.55L686.69,413l-10.38,17.13L673.38,441s4.31-5.87,4.5-5.28S678.27,446.07,678.27,446.07Z"/><path class="cls-6" d="M609.63,467.67l-1.44,19.78a.74.74,0,0,1-.05.25L598.61,512a.47.47,0,0,1-.05.1l-4.37,8a.92.92,0,0,0-.11.39l0,1.56a.86.86,0,0,0,.52.82l1.54.68a.73.73,0,0,0,.3.07l5.1.28a12.32,12.32,0,0,0,4.83-1,1.07,1.07,0,0,0,.22-.15l4.88-4.43,0,0,1.32-1.34.07-.08,6.56-8.44L639,483.6l2.57-3.18a4.89,4.89,0,0,0,1.09-3.32l-.27-3.55a3.17,3.17,0,0,1,1.23-2.6l.19-.11L647,469.4a2.37,2.37,0,0,0,1.39-1.88l.34-4.24"/><polyline class="cls-6" points="609.72 467.67 610.88 469.77 648.76 463.29"/><path class="cls-7" d="M455.72,396.8l-3.47,18.73-.49,9.11,4.11,6.26-.39.64-2.25-1.7,0,2.21a3.4,3.4,0,0,0,1.15,2.58l3.26,2.6a3.38,3.38,0,0,0,2.07.72H461l1.86-3.62,4.7,3.13,2.93.49-.78-4.5-2.84-8.23.59-5.67,4.9-9.64,1.11-2.56a2.46,2.46,0,0,1,2.15-1l2.18.42,12.14,4.63,2.65.58a1.15,1.15,0,0,0,1.15-1.13l0-2.22v-4.89a5.49,5.49,0,0,1,1-2.85l6.09-8.22,4.43-8.79"/><polyline class="cls-7" points="455.72 396.8 501.81 388.45 505.23 383.93"/><path class="cls-8" d="M505.23,383.93l2.91-5.79,2.28-3.89a9,9,0,0,1,3-2.7l3.64-1.8a10.77,10.77,0,0,1,3.09-.86L532,367.7a1.39,1.39,0,0,0,1.23-1.36l.06-2.77a2.6,2.6,0,0,0-.05-.62l-.66-3.61a9.05,9.05,0,0,1,.53-3.91,9.68,9.68,0,0,1,2.51-3.31,56.81,56.81,0,0,0,6.46-7.46,4.49,4.49,0,0,0,.91-3.56l-1-3.88-1.44-5a7.09,7.09,0,0,0-4.22-4.42l-3.8-.09a2.13,2.13,0,0,0-2.51.88l-5.26,8.94L507.94,337l-1.07-9.59-1-2.94L498.65,330l-29,33.67-12.63,26-1.32,7.11"/><polyline class="cls-8" points="455.72 396.8 501.81 388.45 505.23 383.93"/><path class="cls-9" d="M729.94,478.29l-14.3-4.62-11-2a13.34,13.34,0,0,0-4.5-.07l-12.59,1.91a19.46,19.46,0,0,0-4.42,1.22l-15.23,6.16a10.28,10.28,0,0,0-4.58,3.66L658.85,491a29.9,29.9,0,0,0-3.17,5.86l-4.75,11.77-2.68,12.19a23.12,23.12,0,0,0-.49,6.1l1.63,29.22"/><path class="cls-9" d="M729.94,478.29c-15.72,36.59-43.31,63.34-80.55,77.81"/><path class="cls-8" d="M676.54,357.11l3-1.69a1.09,1.09,0,0,0,.17-.13l8.43-8c.88-.94,1.11-4,.38-5.09L678.6,330a5.11,5.11,0,0,0-.81-.8c-2.57-2.06-18.74-15.15-21.58-17.44a25.19,25.19,0,0,0-2.34-1.69l-8.39-4.22a.74.74,0,0,0-.21-.07l-10.83-2.26h-.05l-21.16-3.05-.17,0-11.5-4.12-.13-.06-4.7-2.58c-1-.42-2.5.59-2.92,1.37l-3.44,6.53-5.66,10.18a.85.85,0,0,1-.65.44l-12.19,1.49c-1.56.21-2.36.68-2.4,2.83a.37.37,0,0,1,0,.11l-.36,2.27a5.83,5.83,0,0,1-1.64,3.24l-2.33,2.32,0,0-3.83,3.36a1.25,1.25,0,0,0,.23,1.91l8.86,5.14a1.54,1.54,0,0,1-.15,2.15L563,340.31a.88.88,0,0,0-.48.77l-.33,9.16a2.79,2.79,0,0,0,1.42,2.25l7.24,1.6a.85.85,0,0,0,.73,0l8.34-6.49a8,8,0,0,1,2.81-1.41l9.5-2.66a5.58,5.58,0,0,1,1.29-.19c1.52,0,5.3-.09,6.85-.1a3.78,3.78,0,0,1,1.37.25c1.23.47,4,1.31,5.38,1.88a4.36,4.36,0,0,1,1.76,1l4.36,6.41c.64.85,1.31.77,1.57-.27l1.07-5.22a.88.88,0,0,1,.82-.68l18.21-.6a1,1,0,0,1,.59.2c1.39,1.17,8,6.7,8,7.23a23.11,23.11,0,0,0,1.45,3.64.86.86,0,0,1-.3,1.08"/><path class="cls-8" d="M676.54,357.11,675.48,355a.42.42,0,0,0-.44-.21l-31,5.38a.42.42,0,0,1-.42-.66l1-1.36"/><path class="cls-10" d="M507.76,508.54l1.07,4.64,1.7,5.91a7.69,7.69,0,0,0,2.68,3.94l4.82,3.7,14.49,13.71,10.37,7.24c.78,1,3.35.1,3.88-1.5l3-10.34,5-13.8,1.17-3.49a4.4,4.4,0,0,0-.39-2.6l-2.2-4.25-4.1-6.55"/><polyline class="cls-10" points="508 508.54 510.24 513.76 548.42 507.16 549.5 505.15"/><path class="cls-11" d="M549.26,505.15,545,498.36a4.85,4.85,0,0,1-.32-4.17l1.79-3.79,6.21-13.78,3.23-15.28,1-3.82a3.06,3.06,0,0,0-2.43-3.42l-29.24-5.29-10.36-1.23-10.67-2.84-15-5.71-4.6-1.11-7.2.37-5.82.74L467.32,438l-4.21-2.64-1.86,3.52s-7.14,16.73-7.18,16.87a9.38,9.38,0,0,0,1.31,6.72L466,477.5l12.63,15.27L481,495.7l7.92-1.86,10.37-4.49a3.37,3.37,0,0,1,4,1.61l1.58,4.94,2.9,12.64"/><polyline class="cls-11" points="507.96 508.54 510.2 513.76 548.37 507.16 549.45 505.15"/><path class="cls-12" d="M600.74,431.12l64.09-11.26,2.62-8.31a6.37,6.37,0,0,0,.21-2.94l-.13-.79a7.33,7.33,0,0,0-1.34-3.17l-4.49-6-9.22-8.86a3.66,3.66,0,0,1-1.32-2.4l.1-3c-.18-1.77-.11-2-1.86-2.35l-8.26-1.45-.42-.15L635.2,378a6,6,0,0,1-1.5-1.48l-2.29-3.33a1.8,1.8,0,0,1,1.15-2.33L645.72,367a3.6,3.6,0,0,1,3.51,1l1.1,1.73,6.26,11.35,1.12,2.14a.69.69,0,0,0,1.18-.57l-2.06-11-.19-2.25c.08-.58.16-1.21.68-1.47l1.93-1.11L676,357c.71-.5-.56-1.94-1.42-1.81l-29.89,5.17-1.29-.37,1.57-1.38-2.6,1.11-20.57,7-13.4,7.68-3.49.17L593.67,370a8.76,8.76,0,0,0-4-.61l-18.09,1.52a4.32,4.32,0,0,1-3.16-1l-3.26-2.71c-1.14-.83-2.29-.46-3.36.47l-9.49,8.81a20.12,20.12,0,0,0-4,5l-4,7.33c-.67,2.2-.13,7.21.71,9.36L549.77,409l2.81,6.5a6.27,6.27,0,0,0,2.95,2.87l8.17,3.31a19.07,19.07,0,0,0,2.56.82L580,425.86Z"/><path class="cls-13" d="M610.88,469.77l37.88-6.49V460c0-3.31,3.57-6.26,3.57-6.26a6.22,6.22,0,0,0,1-7.15c-2-4.21,1-6.16.88-6.46s8.53-6.36,8.53-6.36l2.44-15.66a29.57,29.57,0,0,1-2.44,2.44c-.09-.09-62.76,10.09-62.86,10.38,0,0,6.37,1.27,7.93,3.43s1.93,10.37,1.93,10.37l.35,13.32-.35,8.51Z"/><line class="cls-14" y1="268.75" x2="489.05" y2="268.75"/><line class="cls-14" x1="708.13" y1="268.75" x2="1149.81" y2="268.75"/></g></g></svg>