<svg xmlns="http://www.w3.org/2000/svg" viewBox="0 0 784.49 161.57"><defs><style>.cls-1{fill:#40a147;}.cls-2{fill:#19164f;}</style></defs><g id="Layer_2" data-name="Layer 2"><g id="Layer_1-2" data-name="Layer 1"><path class="cls-1" d="M67.06,51.51l42.23,0s.13-9.68-1.85-17.2c-1.37-5.17-5.83-14.13-9.16-17.56A49.83,49.83,0,0,0,76,3.25,68.09,68.09,0,0,0,55.65.16C43.83-.15,31.47,4.68,26.44,7.75A60.34,60.34,0,0,0,11.37,20.29c-3.17,3.86-7.66,12.85-8,16.07A98.3,98.3,0,0,0,2.25,48.58a40.54,40.54,0,0,0,5.62,19.2c5,8.2,12.26,14,21.58,19.13s33.91,13.74,36.36,17.71c3.75,6.08,3.36,18.92-8.6,20.17C43.83,126.2,42.7,112,42.05,104.26H0s.21,6.42.21,13c0,4,2.48,13.15,4.79,17.42a48.76,48.76,0,0,0,9.41,12.47c5.32,4.91,13.23,9.07,17.68,10.34a87.71,87.71,0,0,0,15.8,3.37,101.92,101.92,0,0,0,21.48-.64,65.19,65.19,0,0,0,16.29-4.87,43.24,43.24,0,0,0,14.14-11,49.76,49.76,0,0,0,7.45-12.48,47.65,47.65,0,0,0,3-16.23c-.08-4.29,0-9.26-1.17-14.36A32.36,32.36,0,0,0,103,88.41a62,62,0,0,0-22-17.31l-27-13s-7.66-4.47-9-6.86c-1-1.82-.86-5-.81-6.29.21-4.39,5.86-7.8,8.09-8,4.86-.52,9,.14,10.61,1.85C65.46,41.31,66.58,45.32,67.06,51.51Z"/><path class="cls-1" d="M148.3,39.78l.15,82.05-20.9-.16.32,39.38s84.92.26,85.18,0,0-39.38,0-39.38l-21-.28V39.54l20.82-.16L212.75.16l-84.94.3-.43,39.42Z"/><path class="cls-1" d="M301.78,67.87l93.86.17-54.59,88.39s-15.43,5.25-27.64,4.93a100.91,100.91,0,0,1-31.83-6.11c-9.53-3.38-21.48-12.8-29-20.68-4-4.11-10.94-13.91-14.89-23.36-2.47-5.89-5.68-19.17-6-24.21a102.64,102.64,0,0,1,1.5-23.89,85.74,85.74,0,0,1,7.07-20.31A72.54,72.54,0,0,1,263.1,16.34C272.58,9.59,290.1,1.93,301,1A143.3,143.3,0,0,1,320.91.43a68.45,68.45,0,0,1,17,3.53,93.82,93.82,0,0,1,18.27,7.93C366,17.61,377,27.61,381.87,36.11c8.2,14.3,9.11,21.43,9.11,21.43l-46.77.16s-6.7-12.86-16.34-16.4-21.21-4.6-30.7.06-22.23,16.34-23,33.53c-.78,16.7,1.64,20.85,5.41,28.4,3.59,7.17,11.83,14.61,18.64,17.25,7.07,2.73,17.89,2.51,17.89,2.51l13.34-20-27.69.1Z"/><path class="cls-2" d="M398.5,39.83l-.1-39h54.43a174.78,174.78,0,0,1,19.25.86,62.6,62.6,0,0,1,13.45,3c9.35,3.6,17.47,9,22.93,17.46,3.67,5.69,9.48,17.37,9.86,25.5.21,4.67.67,9.25.43,14.42a41.29,41.29,0,0,1-2.47,12.48C513.28,82,504.5,96,498.5,99.8s-7.77,5.47-16.45,7.4c-.11.21,42.7,54.32,42.7,54.32l-50.9,0L415.62,79.23l37.61.11s14-.22,18.85-6.32,4.84-10.37,4.61-16.72a15.87,15.87,0,0,0-3.27-9,19.74,19.74,0,0,0-6.69-5,23.07,23.07,0,0,0-7.88-2.2c-3.07-.34-7.2-.29-11-.32-7.55-.07-49.37.08-49.37.08"/><polygon class="cls-2" points="649.97 161.2 693.84 161.12 693.55 98.57 740.69 98.57 740.77 161.2 784.49 161.12 784.41 0.24 719.72 0 719.8 39.54 740.53 39.45 740.69 59.38 693.84 59.22 693.68 0.24 650.05 0.08 649.97 161.2"/><polygon class="cls-2" points="542.64 161.2 632.8 161.3 632.91 121.88 584.8 122.04 584.69 99.38 610.25 99.38 610.19 59.79 584.85 59.84 584.75 39.64 632.8 39.54 632.8 0.21 542.59 0.21 542.64 161.2"/></g></g></svg>